<svg height="2048" width="2048" xmlns="http://www.w3.org/2000/svg" shape-rendering="geometricPrecision" text-rendering="geometricPrecision" image-rendering="optimizeQuality" fill-rule="evenodd" clip-rule="evenodd"><path d="M731.013 1639.91l-364.614 116.034-110.4 35.13 155.094-458.095c-26.027-47.84-46.643-98.522-61.331-151.006-17.818-63.684-26.809-129.5-26.809-195.626 0-194.586 77.42-379.06 215.433-515.963C676.85 333.034 862.704 256.93 1057.693 256.93c194.93 0 380.684 76.196 519.03 213.565 137.955 136.986 215.276 321.503 215.276 516.085 0 194.55-77.405 379.004-215.378 515.899-138.41 137.327-324.205 213.456-519.146 213.456-61.847 0-123.464-7.635-183.389-22.966-49.42-12.642-97.384-30.456-143.075-53.06z" fill="#eee"/><path d="M1733.42 986.578c0-185.293-75.657-353.061-197.974-474.518-122.303-121.44-291.219-196.553-477.754-196.553-186.696 0-355.694 75.087-478.054 196.462-122.414 121.429-198.109 289.166-198.109 474.375 0 62.17 8.598 122.502 24.642 179.84 15.943 56.97 39.265 110.91 68.828 160.696l-117.108 345.896-9.257 27.346 27.506-8.753 360.192-114.627c47.687 25.664 98.709 45.772 152.271 59.477 53.966 13.804 110.525 21.137 168.871 21.137 186.613 0 355.56-75.092 477.886-196.461 122.38-121.422 198.06-289.142 198.06-474.316z" fill="#54cc61"/><path d="M947.772 803.395c-2.967-5.978-20.095-47.344-35.882-85.474-10.091-24.376-19.716-47.621-21.603-52.118-17.78-42.39-37.43-41.111-52.502-40.132-.99.064-1.943.126-3.217.126-5.26 0-10.428-.327-15.784-.666-6.697-.425-13.648-.866-20.217-.866-8.733 0-20.63 1.812-33.155 7.675-9.29 4.348-18.873 10.895-27.644 20.531a318.378 318.378 0 01-3.289 3.495c-20.869 21.937-66.362 69.755-66.362 161.591 0 96.334 69.47 187.947 79.678 201.401l-.037.027.095.124.114.115c.4.516 1.875 2.673 4.054 5.86 25.656 37.523 143.6 210.02 322.897 280.05 162.658 63.47 192.09 56.346 218.38 49.986 4.477-1.083 8.846-2.141 13.574-2.578 21.29-2.001 56.118-16.576 85.427-37.042 24.313-16.978 45.536-38.434 53.66-61.026 7.25-20.2 11.35-38.966 13.25-54.413 2.762-22.437.576-40.091-3.506-46.91l-.058-.059c-6.207-10.226-16.944-15.295-33.05-22.9a963.382 963.382 0 01-8.794-4.186l.01-.019c-11.107-5.648-49.53-24.434-82.375-39.96-21.223-10.033-40.081-18.653-47.55-21.333-10.504-3.773-19.657-6.625-29.47-5.52-11.124 1.256-20.83 6.986-29.826 20.612l-.027-.018c-4.519 6.787-12.477 16.963-21.176 27.62-13.777 16.877-30.215 35.83-37.22 43.786v.058c-2.99 3.405-5.57 5.26-8.099 5.565-3.51.424-8.335-1.014-15.015-4.295-4.271-2.137-8.433-3.934-13.567-6.15-25.975-11.207-76.564-33.035-134.221-84.083-20.625-18.254-38.775-38.21-53.934-56.934-24.534-30.305-41.115-57.303-47.703-68.676-5.2-8.919.578-14.7 5.913-20.035l-.027-.031c5.9-5.893 12.575-13.917 19.275-21.969 3.051-3.667 6.103-7.337 9.815-11.612l.057-.058c9.035-10.506 12.78-18.158 17.837-28.485.88-1.797 1.802-3.681 2.73-5.532l.057-.057c4.446-8.958 5.583-17.482 4.756-25.467-.77-7.432-3.257-14.065-6.292-20.008l.022-.01z" fill="#fffffe"/><path fill="none" d="M0 0h2048v2048H0z"/></svg>